<svg xmlns="http://www.w3.org/2000/svg" width="1200" height="630" viewBox="0 0 1200 630" role="img" aria-labelledby="title desc">
  <title id="title">Roadmapper social preview</title>
  <desc id="desc">Roadmapper visual roadmap planning card with a product timeline canvas.</desc>
  <rect width="1200" height="630" fill="#f4f4ee"/>
  <rect x="64" y="64" width="1072" height="502" rx="32" fill="#ffffff" stroke="#d7d5c9" stroke-width="2"/>
  <rect x="104" y="112" width="208" height="406" rx="20" fill="#05302a"/>
  <g fill="#ffffff">
    <path d="M156 166c28-32 78-32 106 0l-18 18c-18-18-52-18-70 0l-18-18z"/>
    <path d="M174 204c18-18 52-18 70 0l-35 42-35-42z"/>
  </g>
  <text x="144" y="314" fill="#ffffff" font-family="Inter, Arial, sans-serif" font-size="30" font-weight="700">Roadmapper</text>
  <text x="144" y="356" fill="#bdd6cd" font-family="Inter, Arial, sans-serif" font-size="19">Plan priorities on one shared canvas.</text>
  <rect x="360" y="126" width="704" height="90" rx="18" fill="#f5f5ef" stroke="#dddace"/>
  <text x="400" y="181" fill="#153b35" font-family="Inter, Arial, sans-serif" font-size="34" font-weight="700">Ship the right things, in the right order.</text>
  <g font-family="Inter, Arial, sans-serif" font-size="18" font-weight="700" fill="#60766f">
    <text x="394" y="280">Q1</text>
    <text x="566" y="280">Q2</text>
    <text x="738" y="280">Q3</text>
    <text x="910" y="280">Q4</text>
  </g>
  <g stroke="#dddace" stroke-width="2">
    <path d="M408 304h594"/>
    <path d="M408 394h594"/>
    <path d="M408 484h594"/>
    <path d="M530 252v264"/>
    <path d="M702 252v264"/>
    <path d="M874 252v264"/>
  </g>
  <g font-family="Inter, Arial, sans-serif">
    <rect x="400" y="318" width="188" height="72" rx="16" fill="#ffffff" stroke="#cad4ce"/>
    <rect x="416" y="335" width="78" height="8" rx="4" fill="#16a34a"/>
    <text x="416" y="368" fill="#153b35" font-size="19" font-weight="700">Research</text>
    <rect x="572" y="414" width="216" height="72" rx="16" fill="#ffffff" stroke="#cad4ce"/>
    <rect x="588" y="431" width="98" height="8" rx="4" fill="#d97706"/>
    <text x="588" y="464" fill="#153b35" font-size="19" font-weight="700">Design system</text>
    <rect x="808" y="330" width="188" height="72" rx="16" fill="#ffffff" stroke="#cad4ce"/>
    <rect x="824" y="347" width="72" height="8" rx="4" fill="#64748b"/>
    <text x="824" y="380" fill="#153b35" font-size="19" font-weight="700">Beta launch</text>
  </g>
</svg>
